HIERARCHY
ROOT ui
{
	 OFFSET 0 0 0
	 CHANNELS 3 XPosition YPosition Z Position
	 EndSite
	 {
	 OFFSET 0 -1 0
	 }
}
ROOT li
{
	 OFFSET 0 0 0
	 CHANNELS 3 XPosition YPosition Z Position
	 EndSite
	 {
	 OFFSET 0 -1 0
	 }
}
ROOT ul
{
	 OFFSET 0 0 0
	 CHANNELS 3 XPosition YPosition Z Position
	 EndSite
	 {
	 OFFSET 0 -1 0
	 }
}
ROOT ll
{
	 OFFSET 0 0 0
	 CHANNELS 3 XPosition YPosition Z Position
	 EndSite
	 {
	 OFFSET 0 -1 0
	 }
}
ROOT tt
{
	 OFFSET 0 0 0
	 CHANNELS 3 XPosition YPosition Z Position
	 EndSite
	 {
	 OFFSET 0 -1 0
	 }
}
ROOT tb
{
	 OFFSET 0 0 0
	 CHANNELS 3 XPosition YPosition Z Position
	 EndSite
	 {
	 OFFSET 0 -1 0
	 }
}
ROOT td
{
	 OFFSET 0 0 0
	 CHANNELS 3 XPosition YPosition Z Position
	 EndSite
	 {
	 OFFSET 0 -1 0
	 }
}
ROOT v
{
	 OFFSET 0 0 0
	 CHANNELS 3 XPosition YPosition Z Position
	 EndSite
	 {
	 OFFSET 0 -1 0
	 }
}
ROOT bn
{
	 OFFSET 0 0 0
	 CHANNELS 3 XPosition YPosition Z Position
	 EndSite
	 {
	 OFFSET 0 -1 0
	 }
}
MOTION
Frames: 32
Frame Time: 0.002
0.013576186180114747	-2.315949946641922E-4	0		0.5064457702636719	-2.34509814453125	0		-1.0627371826171874	0.09138976287841796	0		-0.77568212890625	-2.528215576171875	0		1.491186279296875	-0.6534034423828124	0		3.24355224609375	0.059956462860107425	0		4.80319091796875	0.16923020935058594	0		5.64348828125	0.049546478271484375	0		-0.14120997619628906	5.964333984375	0		
0.024373275756835937	-0.014345601081848144	0		0.4786911315917969	-2.3393896484375	0		-1.141607177734375	0.09414191436767579	0		-0.7579052734375	-2.54548974609375	0		1.5331138916015625	-0.6621433715820313	0		3.25464208984375	0.05989591598510742	0		4.80725927734375	0.16834405517578124	0		5.64296337890625	0.06378386688232422	0		-0.26342507934570314	5.9560068359375	0		
0.03093951416015625	-3.6125001311302187E-4	0		0.5029832763671875	-2.3407705078125	0		-1.12440185546875	0.09087720489501953	0		-0.7913868408203125	-2.5356806640625	0		1.4756226806640624	-0.6507877807617187	0		3.235191650390625	0.07348703765869141	0		4.80836181640625	0.1605291748046875	0		5.64030908203125	0.06430657196044921	0		-0.25205752563476563	5.9658818359375	0		
0.012644149780273438	0.010145890235900878	0		0.47669406127929687	-2.332086181640625	0		-1.1307435302734374	0.09911064147949218	0		-0.7707244262695313	-2.530005615234375	0		1.49210205078125	-0.651982666015625	0		3.23240966796875	0.060727489471435546	0		4.80001904296875	0.16892176818847657	0		5.6378095703125	0.06483257293701172	0		-0.13845790100097657	5.97561865234375	0		
0.08392720031738281	-0.01222652530670166	0		0.4963079833984375	-2.340364013671875	0		-1.07308251953125	0.0950040054321289	0		-0.8119675903320313	-2.531033935546875	0		1.4888543701171875	-0.651760498046875	0		3.247248046875	0.06560724639892578	0		4.79360888671875	0.1622753143310547	0		5.63551708984375	0.06881793975830078	0		-0.14184005737304686	5.9758076171875	0		
-7.338129878044128E-4	0.004674331188201904	0		0.4653908996582031	-2.338580078125	0		-1.0760772705078125	0.09517020416259765	0		-0.7578992919921875	-2.531053955078125	0		1.513806396484375	-0.6551256713867187	0		3.22130078125	0.06834345245361328	0		4.79061279296875	0.16256333923339844	0		5.6299384765625	0.08336043548583984	0		-0.14593572998046875	5.97701416015625	0		
0.06843250274658202	-0.00164335298538208	0		0.4886583251953125	-2.341927978515625	0		-1.1419669189453125	0.08764958953857421	0		-0.81958837890625	-2.53165283203125	0		1.4831754150390626	-0.6513251953125	0		3.222710205078125	0.07451104736328125	0		4.79104150390625	0.1697846221923828	0		5.6291640625	0.05267547607421875	0		-0.14683810424804689	5.974154296875	0		
0.01286484146118164	-0.007354158878326416	0		0.4473035583496094	-2.339923828125	0		-1.1352579345703124	0.09461708831787109	0		-0.7711047973632813	-2.5385517578125	0		1.480755859375	-0.6511134033203125	0		3.2432080078125	0.07128019714355469	0		4.7875634765625	0.16808706665039064	0		5.63264697265625	0.07888011169433594	0		-0.26562164306640623	5.96475439453125	0		
0.024076520919799806	0.010548338890075684	0		0.49134765625	-2.33269775390625	0		-1.133338134765625	0.09868655395507812	0		-0.816932861328125	-2.5244765625	0		1.48167041015625	-0.6479691162109374	0		3.227236328125	0.08081374359130859	0		4.7864404296875	0.17034130859375	0		5.63113818359375	0.08284226989746094	0		-0.15263832092285157	5.9765263671875	0		
-0.006882847785949707	0.00832682228088379	0		0.48434686279296874	-2.33940869140625	0		-1.081213134765625	0.09971277618408203	0		-0.7977481079101563	-2.522757080078125	0		1.4649918212890625	-0.6374556274414063	0		3.212084716796875	0.06932537078857422	0		4.78138916015625	0.16367495727539064	0		5.620423828125	0.07342491912841796	0		-0.1546612548828125	5.97669677734375	0		
1.4615999534726142E-5	-0.012686408996582032	0		0.48068771362304685	-2.341187744140625	0		-1.161924072265625	0.09850499725341796	0		-0.8275435791015625	-2.5310185546875	0		1.4630494384765624	-0.6512544555664063	0		3.21527294921875	0.06245516586303711	0		4.77972216796875	0.16393788146972657	0		5.619240234375	0.07390435028076171	0		-0.17066737365722656	5.9661572265625	0		
-0.01613450622558594	0.0017865869998931884	0		0.4792881774902344	-2.341014404296875	0		-1.0766168212890626	0.08584197235107421	0		-0.7919683837890625	-2.532638671875	0		1.4736363525390626	-0.650312255859375	0		3.213828369140625	0.06267986297607422	0		4.77242236328125	0.1713151397705078	0		5.62458642578125	0.0688551025390625	0		-0.1579973907470703	5.97702490234375	0		
-0.014293479919433593	0.005881343841552734	0		0.43911740112304687	-2.3390380859375	0		-1.1436793212890626	0.0953497314453125	0		-0.814201904296875	-2.534057861328125	0		1.472406494140625	-0.6501279907226563	0		3.21185595703125	0.07591286468505859	0		4.78017626953125	0.17137088012695312	0		5.62370361328125	0.06929755401611327	0		-0.29177276611328123	5.95792578125	0		
-0.0014963769912719727	-0.0012564949989318848	0		0.48221612548828124	-2.333793701171875	0		-1.0825413818359375	0.10419392395019532	0		-0.791095703125	-2.528419189453125	0		1.471362548828125	-0.6499525146484375	0		3.215633056640625	0.06801475524902344	0		4.77012060546875	0.1717871551513672	0		5.6195361328125	0.0871911849975586	0		-0.16049684143066406	5.9773291015625	0		
0.008744802474975586	0.004657433032989502	0		0.452335205078125	-2.33504150390625	0		-1.156573974609375	0.09783599090576171	0		-0.7939794921875	-2.530245849609375	0		1.509441650390625	-0.6525951538085938	0		3.237891357421875	0.07472819519042968	0		4.7750908203125	0.16487948608398437	0		5.61595361328125	0.07561880493164062	0		-0.1614678192138672	5.9774697265625	0		
-0.010219352722167969	-0.006833388805389405	0		0.47553961181640625	-2.34039794921875	0		-1.096369873046875	0.09369036102294923	0		-0.797745849609375	-2.534060302734375	0		1.46390673828125	-0.6435100708007813	0		3.205074462890625	0.07057080841064453	0		4.774369140625	0.16507943725585938	0		5.61955859375	0.056741275787353516	0		-0.1764951629638672	5.9668935546875	0		
-0.010788972854614259	-0.006711246013641358	0		0.42311444091796874	-2.334194091796875	0		-1.1509705810546875	0.09291712188720704	0		-0.798283203125	-2.5339482421875	0		1.4661375732421875	-0.6534290771484375	0		3.204503662109375	0.07073398590087891	0		4.7686533203125	0.15836766052246093	0		5.621412109375	0.07080399322509766	0		-0.2953434753417969	5.958458984375	0		
0.05393105316162109	5.2062999457120896E-5	0		0.4875100402832031	-2.344421875	0		-1.1473421630859375	0.09593036651611328	0		-0.8176810302734375	-2.533454345703125	0		1.451882080078125	-0.645013671875	0		3.23112744140625	0.0733224868774414	0		4.77063330078125	0.17848823547363282	0		5.6240615234375	0.08307087707519531	0		-0.14725608825683595	5.98549658203125	0		
0.003572525978088379	-0.0018142930269241333	0		0.4653783874511719	-2.33686474609375	0		-1.1494638671875	0.10505536651611327	0		-0.7809886474609375	-2.535130126953125	0		1.5105074462890624	-0.6491187744140625	0		3.207886474609375	0.0769317626953125	0		4.77619873046875	0.17251678466796874	0		5.6208876953125	0.07138273620605469	0		-0.16379183959960938	5.97792626953125	0		
0.0034545130729675294	0.0022721569538116456	0		0.4761800537109375	-2.33799951171875	0		-1.089740478515625	0.1008905258178711	0		-0.8428591918945313	-2.519772705078125	0		1.4483270263671875	-0.6477335205078125	0		3.203561767578125	0.07113784790039063	0		4.77285205078125	0.16571945190429688	0		5.62077587890625	0.07509652709960937	0		-0.17828189086914062	5.96730322265625	0		
-0.04762928009033203	0.004402740001678467	0		0.4501574401855469	-2.334380859375	0		-1.168902099609375	0.09958867645263672	0		-0.7971844482421875	-2.531652587890625	0		1.499207763671875	-0.6486944580078124	0		3.208300048828125	0.06414762878417969	0		4.77273486328125	0.16584793090820313	0		5.6142919921875	0.07738383483886718	0		-0.1642371826171875	5.9780869140625	0		
0.017976551055908202	-0.012889594078063964	0		0.47402426147460935	-2.339802978515625	0		-1.1589755859375	0.09843757629394531	0		-0.8233668212890625	-2.539054931640625	0		1.4481759033203125	-0.6475578002929687	0		3.208249755859375	0.0642494125366211	0		4.77066357421875	0.16500788879394532	0		5.6206318359375	0.0720917510986328	0		-0.2967766418457031	5.95888330078125	0		
-0.047678955078125	0.00452842378616333	0		0.42422488403320313	-2.33070849609375	0		-1.1480201416015625	0.09625777435302735	0		-0.7832864379882812	-2.536830810546875	0		1.468157958984375	-0.6488959350585938	0		3.20339453125	0.07144415283203125	0		4.77066162109375	0.16511746215820314	0		5.6206337890625	0.07229483032226562	0		-0.16441371154785156	5.9782099609375	0		
0.013531570434570312	0.01231952953338623	0		0.47925567626953125	-2.332786376953125	0		-1.154878662109375	0.10144053649902343	0		-0.8289844360351563	-2.5248408203125	0		1.47126416015625	-0.6458907470703125	0		3.2075546875	0.07744687652587891	0		4.77586181640625	0.1731160888671875	0		5.61724365234375	0.08996241760253906	0		-0.16444049072265626	5.97826025390625	0		
-0.006891932010650635	-0.011217202186584473	0		0.4762469787597656	-2.33767236328125	0		-1.0898057861328125	0.10113275909423829	0		-0.7610472412109375	-2.533205078125	0		1.4682774658203126	-0.6487658081054688	0		3.226451904296875	0.06913907623291016	0		4.76280615234375	0.1674854736328125	0		5.61729248046875	0.09014994812011719	0		-0.16444140625	5.97830419921875	0		
0.0034842860698699953	0.0026136789321899415	0		0.47432415771484376	-2.3395849609375	0		-1.0879031982421874	0.09212028503417968	0		-0.8426622314453125	-2.5194873046875	0		1.4625	-0.6425857543945312	0		3.2035869140625	0.07169149780273437	0		4.77287109375	0.1663771209716797	0		5.61440283203125	0.07836923217773438	0		-0.1654030303955078	5.9793623046875	0		
-0.021404222488403322	0.0031632800102233886	0		0.47445993041992185	-2.339544189453125	0		-1.1627615966796876	0.09468549346923828	0		-0.7988012084960937	-2.533366455078125	0		1.468489501953125	-0.64865478515625	0		3.2036923828125	0.07176670837402344	0		4.76712060546875	0.17359422302246094	0		5.6144365234375	0.07336064147949219	0		-0.29585955810546877	5.9570771484375	0		
0.02247757339477539	-0.008709936141967774	0		0.43563690185546877	-2.33770556640625	0		-1.1476072998046876	0.09639138031005859	0		-0.8176465454101562	-2.53295556640625	0		1.451701416015625	-0.64425634765625	0		3.230864990234375	0.07428256225585937	0		4.7710703125	0.16560617065429686	0		5.62389501953125	0.0851820068359375	0		-0.14721336364746093	5.98505126953125	0		
0.0037497351169586183	-0.0012937619686126708	0		0.48194757080078127	-2.33062060546875	0		-1.147484619140625	0.09640237426757813	0		-0.7913289794921875	-2.5254765625	0		1.4718094482421875	-0.64562109375	0		3.208054443359375	0.07782549285888672	0		4.77635546875	0.17359317016601564	0		5.61761181640625	0.09086691284179688	0		-0.16431106567382814	5.97842724609375	0		
0.0039566969871521	0.002730027914047241	0		0.4510296325683594	-2.333951416015625	0		-1.1642137451171874	0.10375861358642578	0		-0.8281607055664062	-2.524702880859375	0		1.46888232421875	-0.648513427734375	0		3.2040556640625	0.07197892761230469	0		4.7733349609375	0.1667484588623047	0		5.618865234375	0.05983965301513672	0		-0.16427091979980468	5.97844921875	0		
-0.0031498599052429198	-0.008099136352539062	0		0.4750734558105469	-2.339411865234375	0		-1.0932149658203125	0.09730946350097656	0		-0.798177001953125	-2.533304443359375	0		1.463134033203125	-0.6423455810546875	0		3.208294921875	0.07796645355224609	0		4.76347265625	0.1680471954345703	0		5.61483349609375	0.07925901794433594	0		-0.17846221923828126	5.96776171875	0		
-0.02081706237792969	0.003295289993286133	0		0.42332345581054687	-2.333311767578125	0		-1.15628466796875	0.0896161117553711	0		-0.8329688720703124	-2.52957080078125	0		1.4691219482421876	-0.6484192504882812	0		3.204274658203125	0.07212282562255859	0		4.768408203125	0.16004139709472656	0		5.62128271484375	0.07393333435058594	0		-0.2966448669433594	5.95921044921875	0		
